<?xml version="1.0" standalone="no"?>
<!DOCTYPE svg PUBLIC "-//W3C//DTD SVG 1.1//EN" "http://www.w3.org/Graphics/SVG/1.1/DTD/svg11.dtd" >
<!--
2013-9-30: Created.
-->
<svg>
<metadata>
Created by iconfont
</metadata>
<defs>

<font id="iconfont" horiz-adv-x="1024" >
  <font-face
    font-family="iconfont"
    font-weight="500"
    font-stretch="normal"
    units-per-em="1024"
    ascent="896"
    descent="-128"
  />
    <missing-glyph />
    
    <glyph glyph-name="gouwucheman" unicode="&#58880;" d="M346.112 89.088q19.456 0 36.864-7.168t30.208-19.968 20.48-30.208 7.68-36.864-7.68-36.864-20.48-30.208-30.208-20.48-36.864-7.68q-20.48 0-37.888 7.68t-30.208 20.48-20.48 30.208-7.68 36.864 7.68 36.864 20.48 30.208 30.208 19.968 37.888 7.168zM772.096 87.04q19.456 0 37.376-7.168t30.72-19.968 20.48-30.208 7.68-36.864-7.68-36.864-20.48-30.208-30.72-20.48-37.376-7.68-36.864 7.68-30.208 20.48-20.48 30.208-7.68 36.864 7.68 36.864 20.48 30.208 30.208 19.968 36.864 7.168zM944.128 668.672q28.672 0 44.544-7.68t22.528-18.944 6.144-24.064-3.584-22.016-13.312-37.888-22.016-62.976-23.552-68.096-18.944-53.248q-13.312-40.96-33.28-56.832t-49.664-15.872l-35.84 0-65.536 0-86.016 0-96.256 0-253.952 0 14.336-92.16 517.12 0q49.152 0 49.152-41.984 0-20.48-9.728-35.328t-38.4-14.848l-49.152 0-94.208 0-118.784 0-119.808 0-99.328 0-55.296 0q-20.48 0-34.304 9.216t-23.04 24.064-14.848 32.256-8.704 32.768q-1.024 6.144-5.632 29.696t-11.264 58.88-14.848 78.848-16.384 87.552q-19.456 103.424-44.032 230.4l-76.8 0q-15.36 0-25.6 7.68t-16.896 18.432-9.216 23.04-2.56 22.528q0 20.48 13.824 33.792t37.376 13.312l21.504 0 21.504 0 25.6 0 34.816 0q20.48 0 32.768-6.144t19.456-15.36 10.24-19.456 5.12-17.408q2.048-8.192 4.096-23.04t4.096-30.208q3.072-18.432 6.144-38.912l700.416 0zM867.328 701.44l-374.784 0 135.168 135.168q23.552 23.552 51.712 24.064t51.712-23.04z"  horiz-adv-x="1024" />

    
    <glyph glyph-name="qita" unicode="&#58906;" d="M352 364l-256 0C43.072 364 0 407.072 0 460l0 256C0 768.928 43.072 812 96 812l256 0C404.928 812 448 768.928 448 716l0-256C448 407.072 404.928 364 352 364zM96 748C78.336 748 64 733.664 64 716l0-256C64 442.336 78.336 428 96 428l256 0C369.664 428 384 442.336 384 460l0 256C384 733.664 369.664 748 352 748L96 748zM352-148l-256 0C43.072-148 0-104.928 0-52l0 256C0 256.928 43.072 300 96 300l256 0C404.928 300 448 256.928 448 204l0-256C448-104.928 404.928-148 352-148zM96 236C78.336 236 64 221.6 64 204l0-256C64-69.6 78.336-84 96-84l256 0C369.664-84 384-69.6 384-52l0 256C384 221.6 369.664 236 352 236L96 236zM864-148l-256 0C555.072-148 512-104.928 512-52l0 256C512 256.928 555.072 300 608 300l256 0C916.928 300 960 256.928 960 204l0-256C960-104.928 916.928-148 864-148zM608 236C590.4 236 576 221.6 576 204l0-256C576-69.6 590.4-84 608-84l256 0c17.6 0 32 14.4 32 32l0 256C896 221.6 881.6 236 864 236L608 236zM864 364l-256 0C555.072 364 512 407.072 512 460l0 256C512 768.928 555.072 812 608 812l256 0C916.928 812 960 768.928 960 716l0-256C960 407.072 916.928 364 864 364zM608 748C590.4 748 576 733.664 576 716l0-256C576 442.336 590.4 428 608 428l256 0C881.6 428 896 442.336 896 460l0 256C896 733.664 881.6 748 864 748L608 748z"  horiz-adv-x="1024" />

    
    <glyph glyph-name="daohanggouwuche" unicode="&#58887;" d="M430.441-37.777c32.135 0 58.179-26.045 58.179-58.179s-26.044-58.178-58.179-58.178-58.178 26.044-58.178 58.178 26.044 58.179 58.178 58.179zM732.971-37.777c32.135 0 58.178-26.045 58.178-58.179s-26.044-58.178-58.178-58.178-58.178 26.044-58.178 58.178 26.043 58.179 58.178 58.179zM802.785 8.765h-418.887c-43.010 0-81.476 33.3-87.662 75.841l-85.721 559.314c-0.018 0.117-0.036 0.234-0.052 0.351-1.182 8.274-10.199 16.096-18.554 16.096h-87.28c-19.279 0-34.907 15.629-34.907 34.907s15.629 34.907 34.907 34.907h87.28c43.002 0 81.459-33.299 87.639-75.842l85.722-559.313c0.017-0.116 0.035-0.231 0.051-0.347 1.183-8.276 10.211-16.1 18.578-16.1h418.887c19.279 0 34.908-15.629 34.908-34.908-0.001-19.277-15.63-34.906-34.909-34.906zM429.432 148.643c-18.332 0-33.711 14.298-34.814 32.837-1.144 19.244 13.53 35.773 32.774 36.917l326.142 19.386c0.035 0.002 0.070 0.004 0.105 0.006 23.629 1.333 53.022 22.622 62.705 45.11l64.798 240.446c0.329 1.221 0.724 2.422 1.183 3.599 2.686 6.887 2.564 11.907 1.252 13.826-1.188 1.737-5.4 3.49-12.138 3.49h-487.793c-19.279 0-34.908 15.629-34.908 34.907s15.629 34.907 34.908 34.907h487.793c29.617 0 55.050-12.361 69.779-33.913 14.545-21.286 17.020-49.114 6.888-76.638l-64.915-240.877c-0.329-1.221-0.724-2.423-1.183-3.6-9.142-23.442-26.849-45.64-49.862-62.506-23.1-16.931-49.569-27.035-74.535-28.453l-326.077-19.381c-0.704-0.040-1.407-0.061-2.103-0.061z"  horiz-adv-x="1024" />

    
    <glyph glyph-name="1" unicode="&#58882;" d="M861.005 338.259h-126.531c-22.577 0-40.871 20.15-40.871 45.004 0 24.852 18.294 45.002 40.871 45.002h126.531c22.577 0 40.871-20.149 40.871-45.002 0.001-24.854-18.293-45.004-40.871-45.004zM823.884 542.704h-126.556c-22.579 0-40.872 20.151-40.872 45.003 0 24.852 18.293 45.003 40.872 45.003h126.556c22.578 0 40.873-20.151 40.873-45.003 0-24.852-18.294-45.003-40.873-45.003zM885.777 147.439h-126.555c-22.578 0-40.871 20.143-40.871 45.003 0 24.859 18.293 45.003 40.871 45.003l126.555-0c22.579 0 40.872-20.144 40.872-45.003 0.001-24.86-18.292-45.003-40.872-45.003zM916.272-63.817h-684.456c-93.188 0-168.999 83.487-168.999 186.089l0 521.973c0 102.611 75.811 186.095 168.999 186.095h546.937c22.579 0 40.874-20.151 40.874-45.003 0-24.852-18.295-45.001-40.874-45.001h-546.937c-48.112 0-87.253-43.107-87.253-96.092v-521.973c0-52.984 39.141-96.083 87.253-96.083l684.456-0c22.578 0 40.874-20.144 40.874-45.002 0.001-24.86-18.295-45.004-40.874-45.004zM533.065 338.259h-262.72c-22.579 0-40.872 20.15-40.872 45.004 0 24.852 18.293 45.002 40.872 45.002h262.719c22.578 0 40.873-20.149 40.873-45.002 0.001-24.854-18.294-45.004-40.872-45.004zM270.346 338.259c-10.457 0-20.915 4.396-28.898 13.185-15.967 17.571-15.967 46.064 0 63.644l185.763 204.524c15.966 17.565 41.831 17.571 57.796-0.006 15.966-17.572 15.966-46.065 0-63.645l-185.762-204.524c-7.984-8.782-18.44-13.178-28.899-13.178zM347.301 133.728c-10.456 0-20.915 4.395-28.898 13.183-15.966 17.565-15.966 46.072 0 63.637l185.764 204.533c15.966 17.578 41.831 17.578 57.795 0 15.967-17.572 15.967-46.065 0-63.636l-185.762-204.535c-7.983-8.787-18.44-13.182-28.899-13.182z"  horiz-adv-x="1024" />

    
    <glyph glyph-name="jiarugouwuche" unicode="&#58902;" d="M756.685272 829.913762c-111.451578 0-201.814873-87.405798-201.814873-195.188647 0-107.809456 90.363295-195.187624 201.814873-195.187624 111.476138 0 201.810779 87.379191 201.810779 195.187624C958.497075 742.508987 868.16141 829.913762 756.685272 829.913762zM756.685272 484.09131c-86.003802 0-155.70146 67.433997-155.70146 150.633805 0 83.200831 69.697658 150.658365 155.70146 150.658365 86.001755 0 155.726021-67.45651 155.726021-150.658365C912.409246 551.524284 842.688051 484.09131 756.685272 484.09131zM821.007245 99.496997c-1.5555 0.32031-3.162168 0.490187-4.81284 0.490187L417.735675 99.987184l-18.169673 67.016468 335.668721 24.971916c12.850272 0.935347 22.557821 11.433949 22.278445 23.747983l29.81955 185.661209c-10.027858-1.343665-20.255271-2.051827-30.644374-2.051827-6.184136 0-12.305847 0.252769-18.368204 0.737839l-26.183568-163.020497-325.014569-24.134811-85.406162 315.013318 248.455313 0c-7.391695 14.728129-13.293385 30.354764-17.522913 46.671141l-241.818854 0c-0.588429 0-1.172765-0.027631-1.748914-0.067541l-28.967095 106.840339c-0.383758 12.56578-11.052237 22.639689-24.132764 22.639689L87.978877 704.012408c-13.323062 0-24.122531-10.446411-24.122531-23.335571 0-12.890183 10.802538-23.334547 24.122531-23.334547l128.761632 0 151.115805-557.358176-45.213883 0c-1.539126 0-3.042435-0.14941-4.497646-0.425716-2.851068 0.279376-5.744093 0.425716-8.674983 0.425716-46.644534 0-84.448302-36.555274-84.448302-81.697523 0-45.092104 37.802744-81.673985 84.448302-81.673985 46.642487 0 84.448302 36.581881 84.448302 81.673985 0 13.382417-3.345348 25.998341-9.232711 37.143703l10.528279 0c2.203284-0.30496 4.475133-0.315193 6.758238 0l334.597268 0c-5.89248-11.145362-9.233735-23.761286-9.233735-37.143703 0-45.092104 37.803768-81.673985 84.474909-81.673985 46.61895 0 84.448302 36.581881 84.448302 81.673985C896.259676 60.423245 863.302519 95.062798 821.007245 99.496997zM309.473895-26.238574c-25.448799 0-46.082712 19.920634-46.082712 44.530282s20.633913 44.58145 46.082712 44.58145 46.057128-19.974872 46.057128-44.58145S334.922695-26.238574 309.473895-26.238574zM811.811375-26.238574c-25.447776 0-46.059175 19.920634-46.059175 44.530282s20.611399 44.58145 46.059175 44.58145c25.424239 0 46.059175-19.974872 46.059175-44.58145S837.23459-26.238574 811.811375-26.238574zM859.246962 655.970994l-80.576949 0 0 78.004233c0 7.820481-6.547427 14.163237-14.648308 14.163237l-14.647284 0c-8.07939 0-14.647284-6.342756-14.647284-14.163237l0-78.004233-80.551365 0c-8.102927 0-14.674915-6.343779-14.674915-14.164261l0-14.188821c0-7.821504 6.571988-14.189844 14.674915-14.189844l80.551365 0 0-77.978649c0-7.818434 6.569941-14.188821 14.647284-14.188821l14.647284 0c8.10088 0 14.648308 6.370387 14.648308 14.188821l0 77.978649 80.576949 0c8.07325 0 14.620677 6.369363 14.620677 14.189844l0 14.188821C873.869686 649.627215 867.320212 655.970994 859.246962 655.970994z"  horiz-adv-x="1025" />

    
    <glyph glyph-name="shipinbofangyingpian2" unicode="&#59278;" d="M832 768 128 768C57.344 768 0 710.656 0 640l0-576c0-70.656 57.344-128 128-128l704 0c70.656 0 128 57.344 128 128L960 640C960 710.656 902.656 768 832 768zM688.448 324.16l-319.936-191.488c-5.12-3.008-10.816-4.544-16.512-4.544-5.44 0-10.88 1.344-15.744 4.16C326.208 137.92 320 148.544 320 160.064L320 543.04c0 11.52 6.208 22.08 16.256 27.776 9.984 5.696 22.4 5.504 32.256-0.384l319.936-191.488C698.112 373.184 704 362.752 704 351.552 704 340.288 698.112 329.92 688.448 324.16z"  horiz-adv-x="1024" />

    
    <glyph glyph-name="zixundianji" unicode="&#58890;" d="M502.052607-128c-274.996908 0-501.466608 224.667399-501.466608 502.622497 0 277.954091 224.158928 504.932261 503.778386 504.932261 277.307679 0 503.777379-226.97817 503.777379-504.932261C1008.140758 96.668406 781.672065-128 502.052607-128L502.052607-128zM372.947439 485.30694l-153.335545-394.281045 416.166417 197.141529 153.335545 394.246811L372.947439 485.30694 372.947439 485.30694zM504.363379 305.125164c-39.285129 0-69.328178 30.109503-69.328178 69.497333s30.04305 69.497333 69.328178 69.497333c36.97335 0 69.327171-30.109503 69.327171-69.497333S541.337736 305.125164 504.363379 305.125164L504.363379 305.125164z"  horiz-adv-x="1024" />

    
    <glyph glyph-name="sousuo" unicode="&#58899;" d="M998.417847-72.923523 738.389131 183.032427c68.050929 73.967263 109.909294 171.800228 109.909294 279.479317 0 230.345352-189.746575 417.036095-423.778057 417.036095-234.030475 0-423.77705-186.690742-423.77705-417.036095 0-230.297023 189.746575-416.986758 423.77705-416.986758 101.131452 0 193.870691 34.971414 266.723355 93.126882l261.095991-256.924553c12.70864-12.514315 33.370499-12.514315 46.078132 0C1011.174816-105.759377 1011.174816-85.436831 998.417847-72.923523L998.417847-72.923523 998.417847-72.923523zM424.520368 109.645118c-198.040115 0-358.5393 157.977996-358.5393 352.86562 0 194.88863 160.499184 352.866627 358.5393 352.866627C622.562497 815.377365 783.110011 657.399368 783.110011 462.510738 783.110011 267.623114 622.562497 109.645118 424.520368 109.645118L424.520368 109.645118 424.520368 109.645118z"  horiz-adv-x="1024" />

    
    <glyph glyph-name="mianhua" unicode="&#59009;" d="M740.221842 245.550765c15.585977 2.709715 26.021653 17.539468 23.311939 33.122375-9.233292 53.105498-38.59297 99.43978-82.671884 130.462331-44.078914 31.024597-97.614202 43.022862-150.706397 33.791617-63.438844-11.030218-118.266567-52.164057-146.666384-110.033046-6.969739-14.19735-1.106194-31.360242 13.093203-38.327934 14.192234-6.970762 31.358195-1.111311 38.327934 13.093203 20.349467 41.463344 59.622936 70.935586 105.055684 78.833463 78.483492 13.634532 153.485697-39.117926 167.134555-117.630071 2.419096-13.925151 14.515598-23.741727 28.181853-23.738657C736.910423 245.124046 738.564086 245.264239 740.221842 245.550765zM882.973056 173.260322c60.984956 42.826388 99.793844 113.548102 99.793844 192.504362 0 110.980627-78.606289 206.862371-185.54895 229.924623C749.245356 718.676385 631.013581 800.139745 497.749438 800.139745c-84.630493 0-164.515914-32.616862-224.946238-91.842755-55.183833-54.084803-88.542592-124.833123-95.246271-201.093994C100.332103 480.890724 46.295396 407.093974 46.295396 324.003558c0-73.77526 42.059931-138.427746 103.435791-171.018002-41.37534-35.94977-76.797084-81.588203-79.493495-120.80846-1.249457-18.168802 4.777817-34.349319 16.968463-45.554522 11.388375-10.470469 26.189476-14.687514 44.236504-14.687514 29.667693 0 68.102051 11.400654 114.549919 25.178449 43.686988 12.963243 93.204775 27.650757 130.237203 29.210275 4.091178 0.172939 7.936763 1.209548 11.391445 2.904143 40.585347-14.292518 84.923158-22.021549 130.562615-22.021549 57.394175 0 112.538099 12.128225 160.773683 34.104749 2.556219-0.748037 5.252631-1.167592 8.049327-1.167592 33.320896 0 78.623685-11.390421 118.595049-21.441335 40.330544-10.138918 74.159-18.644639 100.789521-18.644639 19.221784 0 34.692127 4.432962 46.14497 15.882736 11.208273 11.208273 16.32378 26.881231 14.407128 44.128033C962.710099 98.166019 924.906098 141.243117 882.973056 173.260322zM229.701542 52.031283c-34.201963-10.149151-84.690868-25.140587-102.263082-22.776749 0.703011 5.622044 4.808516 18.267039 19.073404 37.464263 16.480346 22.180162 40.293705 44.717458 67.24452 63.797002l27.483958 0c17.232476-21.956058 38.161135-41.459251 61.883419-58.128909C278.360775 66.46297 253.242701 59.014324 229.701542 52.031283zM279.195793 175.492152l-8.54256 12.30321-30.736025 0-1.957585 0.024559c-74.098625 0.972141-134.38364 62.062498-134.38364 136.183635 0 63.769372 45.190225 119.757524 107.452267 133.128043l22.122857 4.751211 0.496304 22.621207c1.524726 69.341275 29.667693 134.290519 79.249949 182.88426 49.656957 48.667419 115.305119 75.469855 184.851055 75.469855 114.301256 0 215.150128-72.916706 250.943332-181.442422l5.597485-16.97051 17.701151-2.431376c87.507006-12.027941 153.49593-87.799672 153.49593-176.25119 0-86.874603-62.059428-160.607908-147.559731-175.323051l-12.096503-2.080382-6.834662-10.194176c-47.018873-70.117964-139.29551-113.679086-240.811578-113.679086C418.318364 64.487989 326.742692 107.021711 279.195793 175.492152zM819.569004 74.255447c-20.639063 5.188162-42.590004 10.694573-64.299445 15.044648 16.70138 14.151301 31.608905 29.892821 44.319391 47.063899 8.788154 1.977028 17.346063 4.476965 25.695219 7.379061 0.356111-0.248663 0.692778-0.515746 1.063215-0.750083 50.498114-31.943526 78.724992-69.726038 83.130326-85.717244C892.053875 56.027293 849.048409 66.84364 819.569004 74.255447z"  horiz-adv-x="1024" />

    
    <glyph glyph-name="redianshijian" unicode="&#59116;" d="M769.568 518.304c-1.648-114.8-48.272-163.648-48.272-163.648C716.896 610.368 464.48 884.48 464.48 884.48c83.408-169.776-285.344-383.232-285.344-689.36 0-192.032 236.864-333.088 355.584-308.88C1047.776-9.2 769.568 518.304 769.568 518.304L769.568 518.304zM512-36.816c0 0-265.92 130.848-7.472 420.8 0 0 128.4-130.08 103.712-251.28 0 0 36.208-3.84 82.304 62.144C690.544 194.864 701.312 10.752 512-36.816L512-36.816z"  horiz-adv-x="1024" />

    
    <glyph glyph-name="shichangdongtai" unicode="&#59118;" d="M827.909973 272.918066 538.857694 272.918066l0-83.588767L827.909973 189.329299 827.909973 272.918066zM827.909973 440.734142 538.857694 440.734142l0-84.22731L827.909973 356.506832 827.909973 440.734142zM827.909973 635.988128 197.482747 635.988128l0-83.588767L827.909973 552.399361 827.909973 635.988128zM197.482747 189.329299l236.091066 0L433.573813 440.734142 197.482747 440.734142 197.482747 189.329299zM849.604064-62.076568c-10.847046 32.54216-40.199561 55.513338-74.017784 55.513338-34.456766 0-63.170738-22.971178-74.017784-55.513338L586.713632-62.076568c-10.847046 32.54216-39.561018 55.513338-74.017784 55.513338-34.456766 0-63.170738-22.971178-74.017784-55.513338L323.8232-62.076568c-10.847046 32.54216-39.561018 55.513338-74.017784 55.513338-33.818223 0-63.170738-22.971178-74.017784-55.513338L66.037019-62.076568 66.037019 775.728776c0 30.627555 23.608697 55.513338 52.322669 55.513338l788.67232 0c28.713972 0 52.322669-24.885783 52.322669-55.513338l0-837.804321L849.604064-62.075545 849.604064-62.076568z"  horiz-adv-x="1024" />

    
    <glyph glyph-name="kefu" unicode="&#58947;" d="M959.716928 341.049792M532.429285-62.838931M64.446801 301.373141M270.969435 838.535217M583.719438 510.237099C664.377456 402.102287 810.145377 357.566978 810.145377 357.566978 799.252283 544.759357 687.435615 636.230652 510.411829 637.130138 298.641681 638.210749 175.627996 466.826404 222.010373 298.133354 222.00935 298.133354 580.769246 433.046043 583.719438 510.237099zM843.843874 174.798351c65.939805 16.944927 114.865097 15.887852 114.865097 150.871149 0 65.013713-38.867216 120.714316-93.980441 144.029324C824.128857 623.448534 697.718819 779.763672 507.890402 784.041092c-6.053879 0.135076-12.062733 0.157589-18.004049 0-183.887101-4.724605-309.892933-146.908908-324.069817-311.821865-58.44511-21.626553-102.44216-79.103616-100.462063-146.549727 4.432962-151.456481 66.321498-153.863297 148.712997-155.550729l0 293.098431c1.732457 125.304867 124.495432 264.293385 293.822932 264.293385 168.313404 0 261.415848-130.999566 302.464753-247.369947l0-301.380048c-8.28264-19.399839-30.449499-41.206494-70.936609-80.296791-52.819996-50.971905-128.907928-77.414137-128.907928-77.414137-8.844435-1.867534-15.078417-13.68365-12.603039-23.76424 2.475378-10.082636 13.253862-16.136515 21.605064-12.242835 0 0 80.274278 26.195615 140.430356 84.256986C819.492256 126.79608 843.640236 174.236556 843.843874 174.798351zM375.327224 271.784242m-37.46631 0a36.613 36.613 0 1 0 74.93262 0 36.613 36.613 0 1 0-74.93262 0ZM657.294131 271.784242m-37.46631 0a36.613 36.613 0 1 0 74.93262 0 36.613 36.613 0 1 0-74.93262 0Z"  horiz-adv-x="1024" />

    
    <glyph glyph-name="baozhengjindanbao" unicode="&#59200;" d="M888.32 752.64c-138.24 0-268.8 48.64-355.84 133.12-12.8 12.8-30.72 12.8-43.52 0-87.04-84.48-217.6-133.12-355.84-133.12-17.92 0-30.72-12.8-30.72-30.72V332.8c0-122.88 64-240.64 171.52-309.76l220.16-145.92c5.12-2.56 10.24-5.12 17.92-5.12 5.12 0 12.8 2.56 17.92 5.12l220.16 145.92C857.6 94.72 921.6 209.92 921.6 332.8V721.92c-2.56 17.92-17.92 30.72-33.28 30.72zM640 350.72c17.92 0 30.72-15.36 30.72-30.72s-15.36-30.72-30.72-30.72h-97.28v-97.28c0-17.92-15.36-30.72-30.72-30.72-17.92 0-30.72 15.36-30.72 30.72v97.28H384c-17.92 0-30.72 15.36-30.72 30.72s15.36 30.72 30.72 30.72h97.28v66.56H384c-17.92 0-30.72 15.36-30.72 30.72 0 17.92 15.36 30.72 30.72 30.72h61.44l-61.44 76.8c-10.24 12.8-7.68 33.28 5.12 46.08 12.8 10.24 33.28 10.24 43.52-5.12l76.8-97.28 76.8 97.28c10.24 12.8 30.72 15.36 43.52 5.12 12.8-10.24 15.36-30.72 5.12-46.08l-61.44-76.8H640c17.92 0 30.72-15.36 30.72-30.72 0-17.92-15.36-30.72-30.72-30.72h-97.28v-66.56H640z"  horiz-adv-x="1024" />

    
    <glyph glyph-name="dianhua" unicode="&#58888;" d="M844.52407 479.263c-88.536 147.435-197.868 238.09-331.213 238.09-131.984 0-246.293-91.505-331.213-238.09C97.15807 332.677 29.15307 215.327 29.15307 215.327-34.78493 65.32 46.31607-57.426 209.40807-57.426h607.805c163.062 0 244.183 122.747 180.255 272.763 0-0.01-64.41 116.49-152.944 263.926zM513.30007 211.773c-114.872 0-207.994 93.103-207.994 207.985 0 114.883 93.122 207.985 207.994 207.985 114.893 0 208.006-93.102 208.006-207.985 0-114.893-93.113-207.985-208.006-207.985zM52.11107 488.315c38.206-23.706 83.62 8.5 91.597 29.399 52.357 136.99 181.146 236.943 336.67 245.596v-0.082a410.435 410.435 0 0 0 63.868 0.02c155.218-8.939 283.77-108.738 336.046-245.544 7.977-20.9 53.391-53.105 91.597-29.4 45.179 28.068 79.728 129.967 21.094 213.494-40.366 57.539-199.588 121.938-444.508 122.727v0.061a772.906 772.906 0 0 1-71.926 0v-0.051c-245.545-0.604-405.094-65.137-445.542-122.747-58.635-83.507-24.075-185.426 21.104-213.473z m0 0"  horiz-adv-x="1024" />

    
    <glyph glyph-name="jiantou" unicode="&#58929;" d="M227.986 311.312l257.492-257.492c20.11-20.11 52.709-20.11 72.819 0l257.492 257.492c20.11 20.11 20.11 52.709 0 72.819s-52.709 20.11-72.819 0l-169.585-169.585v493.664c0 28.453-23.046 51.499-51.499 51.499s-51.499-23.046-51.499-51.499v-493.664l-169.585 169.585c-10.042 10.043-23.226 15.089-36.41 15.089s-26.367-5.021-36.41-15.089c-20.11-20.11-20.11-52.709 0-72.819z"  horiz-adv-x="1000" />

    
    <glyph glyph-name="jiantou-copy-copy" unicode="&#58931;" d="M796.014 483.353l-257.492 257.492c-20.11 20.11-52.709 20.11-72.819 0l-257.492-257.492c-20.11-20.11-20.11-52.709 0-72.819s52.709-20.11 72.819 0l169.585 169.585v-493.664c0-28.453 23.046-51.499 51.499-51.499s51.499 23.046 51.499 51.499v493.664l169.585-169.585c10.042-10.043 23.226-15.089 36.41-15.089s26.367 5.021 36.41 15.089c20.11 20.11 20.11 52.709 0 72.819z"  horiz-adv-x="1000" />

    
    <glyph glyph-name="zuoji" unicode="&#59011;" d="M682.666667 497.777778c13.653333-15.928889 27.306667-31.857778 40.96-45.511111 11.377778-13.653333 25.031111-29.582222 40.96-47.786667s29.582222-34.133333 45.511111-52.337778c20.48-22.755556 36.408889-43.235556 50.062222-61.44 13.653333-18.204444 22.755556-34.133333 31.857778-50.062222 6.826667-15.928889 13.653333-29.582222 15.928889-40.96 2.275556-13.653333 4.551111-25.031111 4.551111-38.684444v-59.164445c0-18.204444-2.275556-34.133333-9.102222-50.062222-6.826667-13.653333-13.653333-27.306667-25.031112-38.684445-11.377778-11.377778-22.755556-18.204444-36.408888-25.031111-13.653333-6.826667-27.306667-9.102222-43.235556-9.102222H234.382222c-15.928889 0-31.857778 2.275556-47.786666 9.102222-15.928889 4.551111-27.306667 13.653333-38.684445 22.755556s-20.48 22.755556-27.306667 36.408889c-6.826667 13.653333-11.377778 29.582222-11.377777 47.786666v70.542223c0 13.653333 2.275556 29.582222 4.551111 40.96 2.275556 13.653333 6.826667 27.306667 15.928889 40.96 6.826667 18.204444 15.928889 31.857778 29.582222 50.062222 13.653333 15.928889 29.582222 34.133333 47.786667 54.613333 15.928889 18.204444 31.857778 34.133333 50.062222 52.337778 15.928889 18.204444 31.857778 34.133333 45.511111 47.786667 15.928889 15.928889 31.857778 31.857778 45.511111 47.786666H682.666667z m-170.666667-345.884445c15.928889 0 31.857778 2.275556 45.511111 9.102223 13.653333 6.826667 27.306667 13.653333 36.408889 25.031111 11.377778 11.377778 18.204444 22.755556 25.031111 36.408889 6.826667 13.653333 9.102222 29.582222 9.102222 45.511111s-2.275556 31.857778-9.102222 45.511111c-6.826667 13.653333-13.653333 27.306667-25.031111 36.408889-11.377778 11.377778-22.755556 18.204444-36.408889 25.031111-13.653333 6.826667-29.582222 9.102222-45.511111 9.102222s-31.857778-2.275556-45.511111-9.102222c-13.653333-6.826667-27.306667-13.653333-36.408889-25.031111-11.377778-11.377778-18.204444-22.755556-25.031111-36.408889-6.826667-13.653333-9.102222-29.582222-9.102222-45.511111s2.275556-31.857778 9.102222-45.511111c6.826667-13.653333 13.653333-27.306667 25.031111-36.408889 11.377778-11.377778 22.755556-18.204444 36.408889-25.031111 13.653333-6.826667 29.582222-9.102222 45.511111-9.102223z m457.386667 457.386667v-56.888889c0-15.928889-4.551111-29.582222-15.928889-40.96-11.377778-11.377778-25.031111-15.928889-40.96-15.928889h-113.777778c-15.928889 0-29.582222 4.551111-40.96 15.928889-11.377778 11.377778-15.928889 25.031111-15.928889 40.96v56.888889H282.168889v-56.888889c0-15.928889-4.551111-29.582222-15.928889-40.96-11.377778-11.377778-25.031111-15.928889-40.96-15.928889h-113.777778c-15.928889 0-29.582222 4.551111-40.96 15.928889-11.377778 11.377778-15.928889 25.031111-15.928889 40.96v59.164445c0 6.826667 2.275556 13.653333 4.551111 18.204444l13.653334 13.653333c4.551111 4.551111 11.377778 9.102222 18.204444 11.377778 6.826667 2.275556 13.653333 6.826667 20.48 11.377778 6.826667 4.551111 22.755556 11.377778 45.511111 25.031111 22.755556 11.377778 52.337778 25.031111 88.746667 38.684444 36.408889 13.653333 75.093333 25.031111 120.604444 36.408889s93.297778 15.928889 145.635556 15.928889c59.164444 0 111.502222-4.551111 157.013333-15.928889 45.511111-11.377778 86.471111-22.755556 120.604445-36.408889 34.133333-13.653333 61.44-27.306667 81.92-38.684444 20.48-11.377778 34.133333-20.48 40.96-25.031111 6.826667-4.551111 13.653333-9.102222 20.48-11.377778 6.826667-2.275556 13.653333-6.826667 18.204444-11.377778l13.653334-13.653333c2.275556-4.551111 4.551111-11.377778 4.551111-20.48z m0 0"  horiz-adv-x="1024" />

    
    <glyph glyph-name="yanjing" unicode="&#58881;" d="M1625.214103 416.703117C1534.168625 529.725089 1207.137455 896 818.3628 896S104.649974 529.725089 11.511497 416.703117a52.324987 52.324987 0 0 1 0-65.406234c91.568728-113.021972 418.599898-479.296883 806.851303-479.296883s715.805825 366.274911 806.851303 479.296883a52.324987 52.324987 0 0 1 0 65.406234z m-806.851303-439.529893c-313.949923 0-587.609607 278.892182-698.015329 407.088401C230.753194 512.457844 507.029126 791.350026 818.3628 791.350026S1405.972407 512.457844 1517.42463 384.261625c-111.452223-128.196219-387.728155-407.088401-699.06183-407.088401zM815.746551 634.375064a245.40419 245.40419 0 1 1 245.40419-245.40419A245.40419 245.40419 0 0 1 815.746551 634.375064z m0-386.158406a140.754216 140.754216 0 1 0 140.754215 140.754216 140.754216 140.754216 0 0 0-140.754215-141.800716z"  horiz-adv-x="1637" />

    
    <glyph glyph-name="rongzirongquan" unicode="&#58901;" d="M16 836h430v-60H16zM412 662v-172c0-18.778-15.222-34-34-34H84c-18.778 0-34 15.222-34 34V662c0 18.778 15.222 34 34 34h294c18.778 0 34-15.222 34-34z m-70-26H120v-120h222V636zM734.5 636H827v-98h70V662c0 18.778-15.222 34-34 34H734.5V836.5h-70V696H536c-18.778 0-34-15.222-34-34v-349h70V636h92.5v-208.5h70V636zM456-36V352c0 18.778-15.222 34-34 34H50c-18.778 0-34-15.222-34-34v-388c0-18.778 15.222-34 34-34h36V326h300v-336h-36c-18.778 0-34-15.222-34-34v-26h106c18.778 0 34 15.222 34 34zM138.985 277l62.534-117H131v-52h74v-148h52V108h74v52h-70.52l62.535 117h-54.151L231 202.158 193.136 277h-54.151zM881.69 404.11l-86.76-121.328-99.547 89.359-103.43-131.446-11.17 12.42H502l89.402-100.57 107.259 135.26 99.085-92.086L1008 477H797l84.69-72.89zM589.684-18H957V231.883L804.416 28.25 709.833 122.7l-88.57-103.72-27.78-32.598-0.029 0.032-3.77-4.415z m209.062 125.4L1009 388v-424c0-18.778-15.222-34-34-34H537c-18.778 0-34 15.222-34 34V164.55l89.402-99.266 114.259 134.073 92.085-91.958z"  horiz-adv-x="1024" />

    
    <glyph glyph-name="wood" unicode="&#58961;" d="M1010.34 88.71900000000005L627.513 786.781C613.425 812.4583 591.63 827.1683 567.702 827.1683c-23.9186 0-45.7433-14.709-59.8221-40.3659L352.372 503.915H176.515a65.2502 65.2502 0 0 1-65.0571-65.0571v-390.342a65.2502 65.2502 0 0 1 65.0571-65.0571h390.342a64.7216 64.7216 0 0 1 6.75983 0.35578 31.6747 31.6747 0 0 1 4.42185-0.304955h370.013c28.8386 0 52.4422 11.9238 64.7521 32.7115s11.4053 47.2072-2.45998 72.498ZM176.627 438.858h390.119l0.111818-0.111818v-99.5062H176.515v99.5062a1.15883 1.15883 0 0 0 0.111817 0.111818Zm-0.111817-164.676h390.342v-65.0571H176.515Zm0-225.555v95.4413h390.342v-95.4413l-0.111818-0.111817H176.627Zm771.537-0.111817H631.915v390.342a65.2502 65.2502 0 0 1-65.0571 65.0571H426.578l138.298 251.588a34.7446 34.7446 0 0 0 2.79542 4.36086 35.5171 35.5171 0 0 0 2.79542-4.36086l382.841-698.073a24.4878 24.4878 0 0 0 2.96823-7.74586 24.5997 24.5997 0 0 0-8.22362-1.169Z"  horiz-adv-x="1104" />

    
    <glyph glyph-name="yang" unicode="&#58946;" d="M961.2 606.8c0 85.3-69.4 154.7-154.7 154.7-24.7 0-49.2-6-71-17.2-12-6.2-23.2-14-33.2-23.2-39.7 66.1-111.4 107.4-190 107.4S362 787.2 322.2 721c-10 9.1-21.2 16.9-33.2 23.2-21.8 11.3-46.3 17.2-71 17.2-85.3 0-154.7-69.4-154.7-154.7 0-83.9 67.2-152.5 150.6-154.6l-84.3-84.3 14-14c19-19 43.9-28.5 68.9-28.5 10.9 0 21.8 1.8 32.1 5.4v-127.4c0-71.2 27.9-138.3 78.6-189 50.7-50.7 117.8-78.6 189-78.6s138.3 27.9 189 78.6c50.7 50.7 78.6 117.8 78.6 189V330.8c10.4-3.6 21.3-5.4 32.1-5.4 24.9 0 49.9 9.5 68.9 28.5l14 14-84.3 84.3c83.5 2.1 150.7 70.6 150.7 154.6zM188.3 370.3l56.4 56.4v-52c-16.8-11.2-38.4-12.7-56.4-4.4z m484.9-327.9c-43.2-43.2-100.3-67-160.9-67s-117.8 23.8-160.9 67c-43.2 43.2-67 100.3-67 160.9V467c1.6 0.7 3.1 1.5 4.7 2.3 12 6.2 23.2 14 33.2 23.2 39.6-66.1 111.4-107.5 190-107.5s150.3 41.3 190.1 107.5c10-9.1 21.2-16.9 33.2-23.2 1.5-0.8 3.1-1.6 4.7-2.3v-263.7c-0.1-60.5-23.9-117.7-67.1-160.9z m106.7 332.4v52l56.4-56.4c-18.1-8.4-39.6-6.9-56.4 4.4z m26.7 117c-36.5 0-71.1 17.6-92.7 47l-20.5 27.9-13.7-31.8c-28.8-66.9-94.5-110.2-167.3-110.2-72.8 0-138.5 43.2-167.3 110.2l-13.7 31.8-20.5-27.9c-21.6-29.4-56.3-47-92.7-47-63.4 0-115 51.6-115 115s51.6 115 115 115c36.5 0 71.1-17.6 92.7-47l20.5-27.9 13.7 31.8c28.8 66.9 94.5 110.2 167.3 110.2 72.8 0 138.5-43.2 167.3-110.2l13.7-31.8 20.5 27.9c21.6 29.4 56.3 47 92.7 47 63.4 0 115-51.6 115-115s-51.6-115-115-115zM540.1 109.5V203h-39.7v-93.5c-23.8 2.2-47.4 8.4-69.7 18.7l-1.2 0.6-16.6-36.1 1.2-0.6c33.8-15.5 69.9-23.2 106.1-23.2 36.7 0 73.4 8 107.5 23.8l-16.8 36c-22.5-10.6-46.5-17-70.8-19.2z"  horiz-adv-x="1024" />

    
    <glyph glyph-name="tanxianwei" unicode="&#58960;" d="M875.461905 83.23002393000002c27.08934609-46.91767588 10.98958799-107.00193692-35.928087-134.09128301-46.91985469-27.08716729-107.0041166-10.98740918-134.09128389 35.9302667-27.08934609 46.91767588-10.98958799 107.00193692 35.9302667 134.091283 46.91767588 27.08716729 107.00193692 10.98958799 134.0891042-35.93026669z m-405.11549618-98.16101631c-27.08934609-46.91767588-87.17360801-63.0174331-134.09128388-35.9302667-46.91767588 27.08934609-63.0174331 87.17360801-35.93026583 134.09128301 27.08934609 46.91985469 87.17360801 63.0174331 134.09128301 35.93026669 46.91767588-27.08934609 63.0174331-87.17360801 35.9302667-134.091283zM182.77788499 483.15254209c54.17651338 0 98.16101719-43.98450381 98.16101719-98.16101631S236.95439836 286.83050859 182.77788499 286.83050859 84.61686869 330.8150124 84.61686869 384.99152578 128.60137249 483.15254209 182.77788499 483.15254209z m810.23317207 0c54.17651338 0 98.16101719-43.98450381 98.16101719-98.16101631s-43.98450381-98.16101719-98.16101719-98.16101719-98.16101719 43.98450381-98.16101631 98.16101719S938.83454369 483.15254209 993.01105706 483.15254209z m-117.54915205 203.59830498c-27.08716729-46.91767588-87.17142832-63.0174331-134.0891042-35.92808701-46.91985469 27.08716729-63.01961279 87.17142832-35.9302667 134.09128389 27.08716729 46.91767588 87.17142832 63.0174331 134.09128389 35.92808701 46.91767588-27.08716729 63.0174331-87.17142832 35.92808701-134.09128388zM470.34640882 784.91404394c27.08716729-46.91985469 10.98740918-107.0041166-35.9302667-134.09128388-46.91767588-27.08934609-107.00193692-10.98958799-134.09128301 35.92808701-27.08716729 46.91985469-10.98740918 107.0041166 35.93026583 134.09128389 46.91767588 27.08934609 107.00193692 10.98958799 134.09128388-35.92808702zM332.01008861 653.41598086c-19.12009658 12.53898281-33.89273613 31.74624668-40.58934611 53.66440635-11.41670742 37.36852295 1.61912813 81.13075049 33.4242132 105.95811182 16.88208223 13.17748184 38.21840156 20.60847422 59.62009658 20.83510898 0.39660997 0.00217881 0.79104112 0.00435849 1.18547227 0.00217881 29.6934627-0.22227627 58.78983076-14.33680401 77.00556884-37.67578682 11.52348662-14.76174375 18.13728779-32.84019404 19.7041166-51.47215488h210.35811094a96.42857168 96.42857168 0 0 0 3.13801523 17.28523037C706.81759524 801.38208222 744.1294595 832.06924951 786.5776431 833.79515771c1.57772373 0.06537568 3.15762714 0.08716729 4.73753056 0.0784503 38.80895888-0.41186426 75.98353535-25.44188818 90.42929736-62.13268828 11.56924951-29.38619883 7.84939482-64.21815967-9.60799042-90.46416445-5.92954013-8.91283271-13.4193709-16.64455166-21.96610137-23.00774766l105.58329345-182.87433457c11.51912812 4.82033935 23.95786904 7.51815967 36.61888623 7.63801435h1.26828018c35.45956406-0.33777246 69.73801435-21.18595605 86.23438242-52.43317207 14.13631934-26.77990342 14.89685273-60.27602872 1.86537569-87.72929736-18.36610136-38.69346269-63.61452773-62.78208222-107.30484229-54.40096846a94.73970938 94.73970938 0 0 0-18.7866835 5.69854687l-105.3392247-182.44939482a95.46319599 95.46319599 0 0 0 17.46392256-17.20024189c31.15133174-39.90726386 26.41162237-104.04915293-16.83849902-137.8111377-26.20460039-20.45593213-63.08716729-26.24818359-94.30823233-14.80750664-28.37506026 10.39467305-51.2564168 34.58789385-60.08861953 63.49903154a93.43438242 93.43438242 0 0 0-3.74164717 19.61912901h-209.95278398c-1.49491494-16.13898281-6.84043594-31.91840156-15.82518164-45.42276094-25.14552099-37.80217881-78.3588375-54.35302675-121.26029063-35.40290537-22.98377724 10.15278487-41.78571416 29.41452773-51.2825669 52.71864434-8.13922559 19.96561758-9.52518164 42.62905547-3.73510898 63.42058125 6.34576289 22.79636807 21.5302667 42.68353535 41.43050859 55.71937002L227.16771575 297.92251817c-19.02857168-9.74091973-41.19079922-13.63075049-62.9673126-9.45326866-30.16634414 5.78571416-56.98765107 26.65351055-70.1585956 54.40096846-13.00096846 27.38789385-12.28619883 60.92324473 1.86537568 87.72929736 16.45714248 31.17530303 50.4588375 52.09321992 86.23220362 52.43317207h1.26828106c15.28038721-0.14600479 30.33849903-4.09903154 43.85157362-11.05060517l104.75084708 181.43389863z m7.39394647-549.89128388c-7.35908028-4.80726387-13.96416445-10.7564168-19.43825625-17.67748185-18.35302675-23.20823232-22.97506026-56.46246943-11.63026669-83.83075049 12.45617402-30.04866826 43.66634414-51.33486709 76.74624756-51.3871664 35.48353535-0.05447901 69.58765107 24.85786904 80.04334131 59.08183945a79.47021797 79.47021797 0 0 1 3.05738524 15.30653819h-38.73268828a44.9193709 44.9193709 0 0 0-5.12760234-13.49564239c-12.42348662-21.5193709-39.98135566-28.90460039-61.50072655-16.47893408-21.5193709 12.42348662-28.90242158 39.98135566-16.47893497 61.49854687a44.83220362 44.83220362 0 0 0 12.26222754 13.72663477l-19.20072656 33.25641593z m503.50096934-4.6329293l-19.64309941-34.02348663a45.12857168 45.12857168 0 0 0 6.17578681-8.32663477c12.42566543-21.51719121 5.04043594-49.07506026-16.47893495-61.49854687-21.51719121-12.42566543-49.07506026-5.04043594-61.49854688 16.47893408a44.86706982 44.86706982 0 0 0-5.12978203 13.49564239h-38.73050859a79.46585948 79.46585948 0 0 1 3.05520557-15.30653819c7.44624668-24.37627148 26.67530302-44.85835372 50.57869306-53.77772373 20.15520557-7.52251816 43.20435849-6.90363193 62.82348662 1.76295411 28.54067783 12.60435849 48.66319599 42.36537568 49.74406787 73.56682792 0.87167109 25.1825669-10.39031455 50.51113769-29.83728867 66.75690059a80.22639199 80.22639199 0 0 1-1.0590794 0.8716711z m-374.55254297-59.11234893c-1.41864433 18.72130781-8.9782084 37.026392-21.72639198 50.83801435-15.39370459 16.67723994-37.73898281 26.57288145-60.53970938 26.81259083l-1.00678008 0.00217969c-11.23801435-0.0849876-22.38668262-2.50823232-32.66150098-6.92760323l19.36852295-33.54624668c11.62154971 3.66319599 24.68135566 2.6302667 36.05665869-3.93777246 12.6326874-7.29152578 20.39273613-19.8 22.13607745-33.2411625h38.37312333z m14.19733653 690.1888623c-1.57554492-26.97602872-13.68740918-53.59031455-36.73220273-71.57941875-26.20460039-20.45375333-63.0849876-26.24600479-94.30823321-14.80750664a93.29055732 93.29055732 0 0 0-6.57457559 2.69782119l-105.0668288-181.97869218c12.32760323-8.78208223 22.68958799-20.28377724 29.77409267-33.70096934 14.13631934-26.77990342 14.89467305-60.27602872 1.863196-87.72929736-7.0997581-14.96004873-18.21791777-27.73656211-31.71138047-37.29660997l105.28256689-182.35133173c11.27506026 5.22130781 23.59612617 8.37021797 36.38571416 8.89104111a107.23075049 107.23075049 0 0 0 4.73753057 0.0784503c38.80895888-0.41186426 75.98353535-25.44188818 90.42711855-62.13268741 3.80702198-9.67118643 5.96004873-19.93075049 6.5113796-30.27966152h209.55399521c1.84576289 27.34866826 14.92518164 54.13510898 37.27046074 71.57723994 16.88208223 13.17748184 38.21622276 20.60847422 59.62009658 20.83510899l1.18547227 0.0021788c16.48765107-0.12421318 32.79007266-4.53050859 47.14866826-12.42130693l104.56779639 181.11573808c-16.39612617 9.96537568-29.97239677 24.62687666-38.20968546 41.98184034-13.00096846 27.38789385-12.28619883 60.92324473 1.86537569 87.72929736 8.32881357 15.77941875 21.15326865 28.93075049 36.42711855 38.11380205l-104.86634414 181.63220361c-26.1697333-14.06222754-58.71138047-16.88861953-86.82493886-4.46949228-22.98377724 10.15278487-41.78571416 29.41234893-51.2847457 52.71646553a98.89539961 98.89539961 0 0 0-7.0866835 31.37578681h-209.95496368z m348.04939482-622.86973418a85.08159844 85.08159844 0 0 1-39.89636806 10.33365675l-1.00895889-0.00217969c-22.80508506-0.24188818-45.15472177-10.14624668-60.53752969-26.81259083-12.75690059-13.81815967-20.30774854-32.12760323-21.72639287-50.83801435H745.80306663c1.7411625 13.4411625 9.50339004 25.94963672 22.13607744 33.2411625 13.87263955 8.01065391 30.25569023 7.78837763 43.47675616 0.84987862l19.18329257 33.228087zM220.00694133 459.41912813c-11.34261474 5.63535088-23.96222754 8.73196084-36.69297889 8.8518164a89.35278487 89.35278487 0 0 1-1.08087101 0c-30.04213096-0.28547227-59.26706982-18.03050859-73.27263954-44.56198565-12.04648945-22.82033935-12.6174331-51.2673126-1.58426104-74.51041201 17.94769981-37.8108958 66.6523002-58.31259082 107.37021797-41.3694914a76.95108984 76.95108984 0 0 1 5.29321992 2.43849902L200.79096047 343.60678008a44.83656211 44.83656211 0 0 0-18.0174331-3.75472178c-24.84697324 0-45.02179161 20.17263955-45.02179248 45.0217916 0 24.84697324 20.17481836 45.01961279 45.02179248 45.0196128 6.40460039 0 12.4997581-1.34019404 18.01743311-3.75472178l19.21598086 33.28038721z m743.46101632-151.70774766c19.34455166-7.47893496 41.40871699-8.24818359 61.51162236 0.117675 26.76246943 11.13559365 46.8414044 37.12227627 50.68983076 65.89176768 3.49321992 26.12832891-6.24552099 53.71452773-25.50072656 71.85617402-15.16489102 14.28668262-35.72542354 22.49564151-56.61937002 22.69394736a89.71234893 89.71234893 0 0 1-1.08305068 0c-10.01985469-0.09370459-19.95254209-2.13123516-29.25762715-5.78789385l19.49927343-33.77506026c3.30799042 0.77578682 6.75544834 1.18547227 10.29878877 1.18547227 24.84915293 0 45.02179161-20.17263955 45.02179248-45.01961279 0-24.84915293-20.17263955-45.02179161-45.02179248-45.0217916-3.54334131 0-6.99079922 0.40968545-10.29878877 1.18547227l-19.23995214-33.3261501z m-13.5174331 148.21234805c-12.726392-7.70339004-23.48716729-18.64285752-30.51937003-31.77021797-12.22736045-22.82251817-12.95520557-51.49612617-1.82179247-74.95496368 6.96682792-14.67457646 18.57094453-26.74285752 32.54382597-35.02372851l18.83462432 32.62227627c-12.6174331 7.98014531-21.00290537 22.05544834-21.00290537 38.07675527 0 16.01912813 8.38547227 30.09660997 21.00290537 38.07675528l-19.03728779 32.97312334z m-717.34794171-4.21016925l-19.42736133-33.64648945c8.9847457-8.23293018 14.62009658-20.05932217 14.62009747-33.19321992 0-13.13389864-5.63535088-24.96246943-14.62009747-33.19539961l19.37941963-33.56585947c17.44866826 13.25157364 29.76537568 33.36319599 32.80968458 55.08740918 3.72639199 26.60121036-6.32832891 54.8150124-26.16319601 73.05908027a80.90193692 80.90193692 0 0 1-6.59854687 5.454479zM707.87013734 729.96828105c1.24213096-18.83462432 8.51622276-37.35326865 21.98571416-51.58765195 15.48523037-16.36561758 37.81307549-26.0324455 60.34140439-26.06731172 14.07312334-0.02179161 27.9261501 3.88111377 40.17094453 10.73244551l-18.95230019 32.82929737c-13.22106504-6.93631934-29.60411661-7.16077442-43.47675615 0.84987948-12.6326874 7.29370459-20.39491494 19.80217881-22.13607745 33.24334131h-37.93292929z m-277.89079922 0c-1.74334131-13.4411625-9.50339004-25.94963672-22.13607745-33.24334131-11.37530303-6.56585947-24.43510898-7.59878964-36.05665869-3.93559365l-19.43389775-33.65956406c1.08740918-0.47070176 2.18571416-0.9152543 3.29491494-1.33801435 20.26198565-7.69903154 43.51380117-7.14987862 63.29418838 1.58644071 27.64503633 12.21210615 47.36876484 40.48692451 49.58062998 70.59007266h-38.54309941z m38.23801435 14.75956406c-2.36440635 20.93753057-12.80702197 40.96852295-28.97869219 54.64721515-14.85326865 12.56513291-34.3002419 19.59515771-53.65351054 19.7411625l-1.00678008-0.00217882c-22.80726387-0.24188818-45.15036328-10.14188818-60.53970938-26.8147705-19.65399521-21.29055732-26.9520583-53.24164628-18.49903154-80.90629541 5.61138047-18.36828105 17.90847422-34.52687666 33.85351055-45.189588l19.21162237 33.27384991a44.85835372 44.85835372 0 0 0-12.26222755 13.72663389c-12.42348662 21.5193709-5.04043594 49.07723994 16.47893497 61.50072656 21.5193709 12.42348662 49.07723994 5.04043594 61.50072656-16.47893496a44.9302667 44.9302667 0 0 0 5.12760234-13.49782032h38.76755449z m374.4152543-73.40121034c12.81355927 10.30532695 22.75714248 24.18232412 27.61016924 40.06634326 9.69297803 31.72881357-1.35326865 68.63099238-27.97845029 89.68619882-14.40435849 11.39273614-32.63535088 17.83874092-51.06029063 18.03486709l-1.00895801 0.00217882c-25.03220362-0.18958799-49.60895888-11.98329258-65.11162237-31.58716729-9.69951533-12.26440635-15.38280879-27.28329258-16.95399521-42.80121036h38.20096846a44.87796651 44.87796651 0 0 0 5.12978203 13.49782032c12.42348662 21.5193709 39.98135566 28.90242158 61.49854688 16.47893496 21.5193709-12.42348662 28.90460039-39.98135566 16.47893495-61.50072656a45.12857168 45.12857168 0 0 0-6.17578681-8.32663389l19.37070176-33.55060517z"  horiz-adv-x="1147" />

    
    <glyph glyph-name="daohang" unicode="&#58939;" d="M913.6 760.8H380.2c-26.7 0-44.4-17.8-44.4-44.4V672c0-26.7 17.8-44.4 44.4-44.4h533.3c26.7 0 44.4 17.8 44.4 44.4v44.4c0.1 26.6-17.7 44.4-44.3 44.4zM158 760.8h-44.4c-22.2 0-44.4-22.2-44.4-44.4V672c0-22.2 22.2-44.4 44.4-44.4H158c22.2 0 44.4 22.2 44.4 44.4v44.4c0.1 22.2-22.1 44.4-44.4 44.4zM158 449.7h-44.4c-22.2 0-44.4-22.2-44.4-44.4v-44.4c0-22.2 22.2-44.4 44.4-44.4H158c22.2 0 44.4 22.2 44.4 44.4v44.4c0.1 22.2-22.1 44.4-44.4 44.4zM913.6 449.7H380.2c-26.7 0-44.4-17.8-44.4-44.4v-44.4c0-26.7 17.8-44.4 44.4-44.4h533.3c26.7 0 44.4 17.8 44.4 44.4v44.4c0.1 26.6-17.7 44.4-44.3 44.4zM158 138.6h-44.4c-22.2 0-44.4-22.2-44.4-44.4v-44.4c0-22.2 22.2-44.4 44.4-44.4H158c22.2 0 44.4 22.2 44.4 44.4v44.4c0.1 22.2-22.1 44.4-44.4 44.4zM913.6 138.6H380.2c-26.7 0-44.4-17.8-44.4-44.4v-44.4c0-26.7 17.8-44.4 44.4-44.4h533.3c26.7 0 44.4 17.8 44.4 44.4v44.4c0.1 26.6-17.7 44.4-44.3 44.4z"  horiz-adv-x="1024" />

    
    <glyph glyph-name="cangku" unicode="&#58932;" d="M826.496102 437.6576c0 21.61664 17.18272 38.8096 38.79936 38.8096s39.36256-17.18272 39.36256-38.8096v-382.48448c0-21.61664-17.73568-39.08608-39.36256-39.08608H158.520422c-21.61664 0-38.8096 17.46944-38.8096 39.08608V437.6576c0 21.61664 17.18272 38.8096 38.8096 38.8096s39.07584-17.18272 39.07584-38.8096v-343.40864h61.80864V454.84032c0 13.02528 10.25024 23.83872 23.27552 23.83872H740.838502c13.02528 0 24.1152-10.81344 24.1152-23.83872V94.23872h61.53216V437.6576h0.01024zM306.519142 180.71552h411.32032v59.32032H306.519142v-59.32032z m411.32032-46.55104H306.519142v-39.90528h411.32032v39.90528z m-411.32032 152.9856h411.32032v59.32032H306.519142v-59.32032z m0 105.8816h411.32032V431.0016H306.519142v-37.96992zM58.741862 449.85344c-18.29888-10.52672-42.68032-3.88096-53.21728 13.86496-11.08992 18.8416-4.98688 42.9568 13.85472 53.21728L492.231782 797.97248c12.7488 7.4752 28.27264 7.20896 39.91552 0l472.84224-281.04704c18.29888-10.25024 24.39168-34.36544 13.86496-53.21728-11.08992-17.73568-34.9184-24.39168-53.77024-13.86496L512.179302 718.98112 58.741862 449.85344zM531.584102 797.97248h0.5632-0.5632z"  horiz-adv-x="1025" />

    
    <glyph glyph-name="zhenxian" unicode="&#59031;" d="M264.884463 766.294333l636.982282 0 0-69.576219-636.982282 0 0 69.576219ZM879.374433 681.723239H287.076878a37.487187 37.487187 0 0 0-37.487187 37.487187V743.802021a37.487187 37.487187 0 0 0 37.487187 37.487187h592.297555a37.487187 37.487187 0 0 0 37.487187-37.487187v-24.591595a37.487187 37.487187 0 0 0-37.487187-37.487187zM287.076878 751.299458a7.497437 7.497437 0 0 1-7.497437-7.497437v-24.591595a7.497437 7.497437 0 0 1 7.497437-7.497437h592.297555a7.497437 7.497437 0 0 1 7.497437 7.497437V743.802021a7.497437 7.497437 0 0 1-7.497437 7.497437zM264.884463-43.428905999999984l636.982282 0 0-69.576219-636.982282 0 0 69.576219ZM879.374433-128H287.076878a37.487187 37.487187 0 0 0-37.487187 37.487187v24.591595a37.487187 37.487187 0 0 0 37.487187 37.487187h592.297555a37.487187 37.487187 0 0 0 37.487187-37.487187v-24.591595a37.487187 37.487187 0 0 0-37.487187-37.487187z m-592.297555 69.576219a7.497437 7.497437 0 0 1-7.497437-7.497437v-24.591595a7.497437 7.497437 0 0 1 7.497437-7.497437h592.297555a7.497437 7.497437 0 0 1 7.497437 7.497437v24.591595a7.497437 7.497437 0 0 1-7.497437 7.497437zM349.68048 482.441353a14.994875 14.994875 0 0 0-3.823693 29.464929l467.465222 123.40782a14.994875 14.994875 0 0 0 7.497437-28.940109L353.504173 482.966174a13.420413 13.420413 0 0 0-3.823693-0.524821zM349.68048 426.810368a14.994875 14.994875 0 0 0-3.823693 29.464929l467.465222 123.482793a14.994875 14.994875 0 1 0 7.497437-28.940108L353.504173 427.335188a13.420413 13.420413 0 0 0-3.823693-0.52482zM349.68048 371.17938200000003a14.994875 14.994875 0 0 0-3.823693 29.98975l467.465222 123.032947a14.994875 14.994875 0 0 0 7.497437-28.940108L353.504173 371.929126a13.420413 13.420413 0 0 0-3.823693-0.749744zM349.68048 315.848294a14.994875 14.994875 0 0 0-3.823693 29.464929L813.322009 468.646068a14.994875 14.994875 0 0 0 7.497437-28.940108L353.504173 316.373115a13.420413 13.420413 0 0 0-3.823693-0.524821zM349.68048 260.367257a14.994875 14.994875 0 0 0-3.823693 29.464929L813.322009 413.165031a14.994875 14.994875 0 1 0 7.497437-28.940108L353.504173 260.89207799999997a13.420413 13.420413 0 0 0-3.823693-0.524821zM349.68048 204.81124599999998a14.994875 14.994875 0 0 0-3.823693 29.464929l467.465222 123.332845a14.994875 14.994875 0 1 0 7.497437-28.940108L353.504173 205.33606699999996a13.420413 13.420413 0 0 0-3.823693-0.524821zM349.68048 149.40518399999996a14.994875 14.994875 0 0 0-3.823693 29.464929l467.465222 123.257871a14.994875 14.994875 0 1 0 7.497437-28.940109L353.504173 149.93000400000005a13.420413 13.420413 0 0 0-3.823693-0.52482zM349.68048 93.77419799999996a14.994875 14.994875 0 0 0-3.823693 29.464929l467.465222 123.107922a14.994875 14.994875 0 1 0 7.497437-28.940108l-467.315273-123.107922a13.420413 13.420413 0 0 0-3.823693-0.524821zM349.68048 38.21818699999994a14.994875 14.994875 0 0 0-3.823693 29.464929L813.322009 191.24088400000005a14.994875 14.994875 0 0 0 7.497437-28.940108l-467.315273-123.557768a13.420413 13.420413 0 0 0-3.823693-0.524821zM349.68048-17.262849999999958a14.994875 14.994875 0 0 0-3.823693 29.464929l467.465222 123.332846a14.994875 14.994875 0 1 0 7.497437-28.940109l-467.315273-123.332845a13.420413 13.420413 0 0 0-3.823693-0.524821zM332.061502 631.86528a21.442671 21.442671 0 0 1 21.367697-21.367696h2.174257l467.315273 48.208522-467.165324-2.998975A23.916825 23.916825 0 0 1 332.061502 631.86528zM332.061502 631.86528a21.442671 21.442671 0 0 1 21.367697-21.367696h2.174257l467.315273 48.208522-467.165324-2.998975A23.916825 23.916825 0 0 1 332.061502 631.86528zM832.3655 25.69746699999996a12.670669 12.670669 0 0 1-3.823693 9.146873 12.895592 12.895592 0 0 1-9.146874 3.748719h-1.499487l-254.912872-29.165031 254.912872 1.799385a14.994875 14.994875 0 0 1 14.470054 14.470054zM337.984478 332.942451c-8.772002-25.266364-14.620003-202.43081-70.176014-249.814614S150.998389 66.93337199999996 159.620442 159.00190399999997c1.349539 13.72031 14.994875 43.560111 14.994875 75.949041Q174.615317 346.66276200000004 139.302387 896L107.13838 234.95094500000005q20.468004-44.309855 20.468005-75.949041c0-142.451311 157.446185-142.451311 189.910089-28.490262s31.264314 209.253478 20.468004 202.430809zM124.682384 238.09986800000001a34.78811 17.544004 90 1 1 35.088007 0 34.78811 17.544004 90 1 1-35.088007 0Z"  horiz-adv-x="1024" />

    
    <glyph glyph-name="shoucang" unicode="&#58900;" d="M707.584 802.816c-77.312 0-148.992-38.912-196.608-102.912-47.104 64-119.296 102.912-196.608 102.912-139.264 0-252.416-123.904-252.416-275.968 0-90.624 40.448-154.624 73.216-205.824C229.888 172.032 468.48-12.8 478.72-20.48c9.728-7.68 20.992-11.264 32.256-11.264s22.528 3.584 32.256 11.264c10.24 7.68 248.32 193.024 343.552 341.504 32.768 51.2 73.216 115.2 73.216 205.824 0 152.064-113.152 275.968-252.416 275.968zM821.76 322.56c-87.552-122.88-272.896-263.168-282.112-269.824-8.704-6.656-18.944-10.24-28.672-10.24-10.24 0-19.968 3.072-28.672 10.24-9.216 6.656-190.976 148.48-282.112 274.944-29.184 46.08-75.776 103.424-75.776 184.32 0 136.192 75.776 231.936 200.192 231.936 69.12 0 144.384-66.048 186.368-123.392 42.496 57.344 117.248 123.392 186.368 123.392 124.928 0 205.824-95.744 205.824-231.936 0-80.896-51.712-143.872-81.408-189.44z"  horiz-adv-x="1024" />

    
    <glyph glyph-name="sousuo1" unicode="&#58926;" d="M981.333333-40.106667l-192 193.28a430.506667 430.506667 0 1 1-45.226666-45.226666L933.546667-85.333333A32 32 0 0 1 981.333333-40.106667zM99.413333 433.066667a365.226667 365.226667 0 1 0 365.226667-365.226667 365.653333 365.653333 0 0 0-365.226667 365.226667z"  horiz-adv-x="1024" />

    
    <glyph glyph-name="zhiliangguanli" unicode="&#58893;" d="M96.5 735.5v-349.3c0-230.3 188.4-420.2 418.7-418.7 228.5 1.5 413.3 187.1 413.3 416v352c0 35.3-28.7 64-64 64h-704c-35.3 0-64-28.7-64-64zM753 453.8c0-2.8-0.4-5.6-1.1-8.3V283c0-18.3-14.8-33.1-33.1-33.1s-33.1 14.8-33.1 33.1V420.8H582.2V341c64.8-15.2 110.6-73 110.6-139.5h-0.2c-0.3-18.1-15.2-32.6-33.3-32.5-18.1 0.1-32.8 14.9-32.8 33 0 0.6 0.1 1.2 0.1 1.9-1.3 42.1-36.2 75.4-78.3 74.8-42.1-0.6-76-35-76-77.1h-0.3c-0.1-12.4-7.1-23.7-18.1-29.3-11-5.6-24.3-4.5-34.3 2.8-10 7.3-15.1 19.5-13.3 31.8 2.4 64.2 47.2 119 109.7 134.1v80H411.4v-138c0-18.3-14.8-33.1-33.1-33.1s-33.1 14.8-33.1 33.1V453.9c0 8.8 3.5 17.2 9.7 23.4 6.2 6.2 14.6 9.7 23.3 9.7H516v22H380.3c-18.3 0-33.1 14.8-33.1 33.1s14.8 33.1 33.1 33.1h135.8c0 18.3 14.8 33.1 33.1 33.1s33.1-14.8 33.1-33.1h136.4c18.3 0 33.1-14.8 33.1-33.1S737 509 718.7 509H582.2v-22H720c8.8 0 17.2-3.5 23.4-9.7 6.1-6.3 9.6-14.7 9.6-23.5z m-9.1 178.6H314.1v-429.8c0-18.3-14.8-33.1-33.1-33.1s-33.1 14.8-33.1 33.1V665.4c0 18.3 14.8 33.1 33.1 33.1h462.9c18.3 0 33.1-14.8 33.1-33.1 0-18.2-14.8-33-33.1-33z"  horiz-adv-x="1024" />

    
    <glyph glyph-name="ziyuan" unicode="&#58944;" d="M966.376103 257.80793000000006a380.383302 380.383302 0 0 1 3.441563 51.985718v1.449079A439.071011 439.071011 0 0 1 695.036014 717.890591a82.959787 82.959787 0 0 1 0 9.60015 164.289359 164.289359 0 1 1-328.578719 8.332205 148.349488 148.349488 0 0 1 0-18.11349A438.889877 438.889877 0 0 1 92.762452 311.24272699999995a403.93084 403.93084 0 0 1 3.441564-54.340471 166.100709 166.100709 0 0 1-44.921457-30.611799 164.289359 164.289359 0 0 1 108.680943-283.476128h4.166103a164.289359 164.289359 0 0 1 90.567453 27.351371 437.984202 437.984202 0 0 1 552.642597 0 160.123257 160.123257 0 0 1 86.944755-27.713641h4.166103a164.289359 164.289359 0 0 1 67.382185 314.269062zM403.227681 734.917272A128.062378 128.062378 0 0 0 531.290059 859.719222h3.260428a126.794434 126.794434 0 0 0 124.80195-127.881244v-3.441563a125.16422 125.16422 0 0 0-5.615182-33.872227 120.998117 120.998117 0 0 0-13.947387-30.792934 130.960537 130.960537 0 0 0-20.28711-24.815482 55.608416 55.608416 0 0 0-6.158587-5.252913 126.794434 126.794434 0 0 0-164.289359 0 136.575719 136.575719 0 0 0-10.505825 9.96242 130.960537 130.960537 0 0 0-15.939871 20.28711 126.794434 126.794434 0 0 0-19.381435 67.019915z m-147.443813-716.388552a126.794434 126.794434 0 0 0-184.2142 1.086809 127.700109 127.700109 0 0 0 30.792934 200.154071 116.469744 116.469744 0 0 0 34.415632 13.041713 125.707625 125.707625 0 0 0 27.532506 3.079294h4.166103a121.722657 121.722657 0 0 0 38.76287-7.426532 126.794434 126.794434 0 0 0 85.31454-123.896275 112.122507 112.122507 0 0 0-2.535888-24.815482 117.556554 117.556554 0 0 0-14.671928-36.226981 124.983085 124.983085 0 0 0-19.562569-24.996617z m275.506191-108.680944a400.670411 400.670411 0 0 0-247.792551 85.676811 163.021415 163.021415 0 0 1 19.019165 24.090942 157.225098 157.225098 0 0 1 16.483277 33.147688 161.210066 161.210066 0 0 1 9.781285 51.623448A164.289359 164.289359 0 0 1 199.450912 268.313755a149.798567 149.798567 0 0 1-31.336339 3.803833H163.223931a156.138289 156.138289 0 0 1-31.879744-3.260429 409.908292 409.908292 0 0 0-2.173619 42.385568 402.84403 402.84403 0 0 0 245.437798 370.420882 157.768503 157.768503 0 0 1 13.585118-30.430664 147.987218 147.987218 0 0 1 21.917323-30.249529 26.989101 26.989101 0 0 1 2.173619-2.535889 164.289359 164.289359 0 0 1 114.83953-51.080043h4.347238a163.021415 163.021415 0 0 1 113.028181 45.283726 85.67681 85.67681 0 0 1 7.969936 8.332206 152.87786 152.87786 0 0 1 22.098459 30.068394c2.535889 4.528373 4.890642 9.23788 7.064261 13.947388s4.528373 11.049229 6.339722 16.664411a390.164587 390.164587 0 0 0 78.612549-44.378051 401.757221 401.757221 0 0 0 167.006383-326.042831v-1.449079a382.375786 382.375786 0 0 0-2.173619-40.936489 144.907925 144.907925 0 0 1-28.257045 3.260429h-3.622699a156.138289 156.138289 0 0 1-36.226981-3.984968 160.847796 160.847796 0 0 1-76.8012-41.117624 164.832764 164.832764 0 0 1-41.661028-174.432914A167.730923 167.730923 0 0 1 760.96912 19.253258999999957a169.542272 169.542272 0 0 1 18.11349-24.090942 399.402467 399.402467 0 0 0-247.792551-86.03908z m364.44343 70.642614a126.794434 126.794434 0 0 0-59.955653 16.664411 125.345355 125.345355 0 0 0-28.80045 22.279593 112.122507 112.122507 0 0 0-18.113491 23.909808 113.571586 113.571586 0 0 0-14.309658 36.226981 114.83953 114.83953 0 0 0-3.079293 30.611799 126.794434 126.794434 0 0 0 39.849679 89.661778 125.52649 125.52649 0 0 0 44.378052 27.351371 121.903792 121.903792 0 0 0 38.76287 7.607666h8.332206a114.83953 114.83953 0 0 0 23.728672-2.898158 121.903792 121.903792 0 0 0 34.234498-12.679444 122.447196 122.447196 0 0 0 31.698608-24.090942 126.794434 126.794434 0 0 0 35.140172-90.567453 128.786918 128.786918 0 0 0-131.866212-124.80195zM882.872911 309.79364799999996a18.113491 18.113491 0 0 0-18.11349 18.113491A332.744822 332.744822 0 0 1 740.500875 569.903373a18.113491 18.113491 0 0 0-3.803833 24.815482 18.113491 18.113491 0 0 0 25.902292 3.984968 369.696343 369.696343 0 0 0 138.568203-270.25328 18.113491 18.113491 0 0 0-18.294626-18.656895z"  horiz-adv-x="1064" />

    
    <glyph glyph-name="jinggao" unicode="&#58933;" d="M867.3 13.7h-64V431c0 77.5-30.4 150.5-85.6 205.7-55.2 55.2-128.3 85.6-205.7 85.6s-150.5-30.4-205.7-85.6-85.6-128.3-85.6-205.7v-417.3h-64V431c0 47.8 9.4 94.2 28.1 138 18 42.3 43.6 80.3 76.3 112.9 32.7 32.7 70.7 58.3 112.9 76.3 43.8 18.6 90.3 28.1 138 28.1 47.8 0 94.2-9.4 138-28.1 42.3-18 80.3-43.6 112.9-76.3 32.7-32.7 58.3-70.7 76.3-112.9 18.6-43.8 28.1-90.3 28.1-138v-417.3zM923.2 9.8H100.8c-17.7 0-32 14.3-32 32s14.3 32 32 32h822.4c17.7 0 32-14.3 32-32s-14.3-32-32-32zM410.1 146.3c-8.5 0-17 3.4-23.3 10.1-12.1 12.9-11.5 33.1 1.4 45.2l157 147.5H398c-12.9 0-24.6 7.8-29.5 19.7-5 11.9-2.3 25.7 6.8 34.8l206.6 208.6c12.4 12.6 32.7 12.7 45.3 0.2 12.6-12.4 12.7-32.7 0.2-45.3l-152.7-154H626c13.1 0 24.9-8 29.8-20.2 4.8-12.2 1.7-26.1-7.8-35.1L432 155c-6.2-5.8-14-8.7-21.9-8.7z"  horiz-adv-x="1024" />

    
    <glyph glyph-name="cangku1" unicode="&#59005;" d="M928 351c-8.2 0-16.4 3.13-22.66 9.4L512 754.69 118.65 360.4c-12.48-12.51-32.74-12.54-45.25-0.05-12.51 12.48-12.54 32.74-0.05 45.25l416 417c6 6.02 14.15 9.4 22.65 9.4s16.65-3.38 22.65-9.4l416-417c12.48-12.51 12.46-32.77-0.05-45.25-6.25-6.24-14.42-9.35-22.6-9.35zM832-64H192c-17.67 0-32 14.33-32 32V319c0 17.67 14.33 32 32 32s32-14.33 32-32v-319h576V319c0 17.67 14.33 32 32 32s32-14.33 32-32v-351c0-17.67-14.33-32-32-32zM427.33 315h-86.67c-27.94 0-50.67 22.73-50.67 50.67v86.67c0 27.94 22.73 50.67 50.67 50.67h86.67c27.94 0 50.67-22.73 50.67-50.67v-86.67c0-27.94-22.73-50.67-50.67-50.67zM350 375h68v68h-68v-68zM427.33 64h-86.67c-27.94 0-50.67 22.73-50.67 50.67v86.67c0 27.94 22.73 50.67 50.67 50.67h86.67c27.94 0 50.67-22.73 50.67-50.67v-86.67c0-27.94-22.73-50.67-50.67-50.67zM350 124h68v68h-68v-68zM683.33 64h-86.67c-27.94 0-50.67 22.73-50.67 50.67v86.67c0 27.94 22.73 50.67 50.67 50.67h86.67c27.94 0 50.67-22.73 50.67-50.67v-86.67c0-27.94-22.73-50.67-50.67-50.67zM606 124h68v68h-68v-68z"  horiz-adv-x="1024" />

    


  </font>
</defs>
</svg>
